<svg width="288" height="44" viewBox="0 0 288 44" fill="none" xmlns="http://www.w3.org/2000/svg">
<rect width="288" height="44" rx="5" fill="#FF3682"/>
<path d="M25 19C24.0111 19 23.0444 19.2932 22.2221 19.8427C21.3999 20.3921 20.759 21.173 20.3806 22.0866C20.0022 23.0002 19.9031 24.0055 20.0961 24.9755C20.289 25.9454 20.7652 26.8363 21.4645 27.5355C22.1637 28.2348 23.0546 28.711 24.0245 28.9039C24.9945 29.0969 25.9998 28.9978 26.9134 28.6194C27.827 28.241 28.6079 27.6001 29.1573 26.7779C29.7068 25.9556 30 24.9889 30 24C30 22.6739 29.4732 21.4021 28.5355 20.4645C27.5979 19.5268 26.3261 19 25 19V19ZM25 27C24.4067 27 23.8266 26.8241 23.3333 26.4944C22.8399 26.1648 22.4554 25.6962 22.2284 25.1481C22.0013 24.5999 21.9419 23.9967 22.0576 23.4147C22.1734 22.8328 22.4591 22.2982 22.8787 21.8787C23.2982 21.4591 23.8328 21.1734 24.4147 21.0576C24.9967 20.9419 25.5999 21.0013 26.1481 21.2284C26.6962 21.4554 27.1648 21.8399 27.4944 22.3333C27.8241 22.8266 28 23.4067 28 24C28 24.7956 27.6839 25.5587 27.1213 26.1213C26.5587 26.6839 25.7956 27 25 27ZM30 18C29.8022 18 29.6089 18.0586 29.4444 18.1685C29.28 18.2784 29.1518 18.4346 29.0761 18.6173C29.0004 18.8 28.9806 19.0011 29.0192 19.1951C29.0578 19.3891 29.153 19.5673 29.2929 19.7071C29.4327 19.847 29.6109 19.9422 29.8049 19.9808C29.9989 20.0194 30.2 19.9996 30.3827 19.9239C30.5654 19.8482 30.7216 19.72 30.8315 19.5556C30.9414 19.3911 31 19.1978 31 19C31 18.7348 30.8946 18.4804 30.7071 18.2929C30.5196 18.1054 30.2652 18 30 18ZM34.94 20.24C34.9234 19.3854 34.7611 18.5399 34.46 17.74C34.1808 17.0121 33.7516 16.351 33.2003 15.7997C32.649 15.2484 31.9879 14.8192 31.26 14.54C30.4601 14.2389 29.6146 14.0766 28.76 14.06C27.79 14 27.47 14 25 14C22.53 14 22.21 14 21.24 14.06C20.3854 14.0766 19.5399 14.2389 18.74 14.54C18.0121 14.8192 17.351 15.2484 16.7997 15.7997C16.2484 16.351 15.8192 17.0121 15.54 17.74C15.2389 18.5399 15.0766 19.3854 15.06 20.24C15 21.22 15 21.54 15 24C15 26.46 15 26.78 15.06 27.76C15.0766 28.6146 15.2389 29.4601 15.54 30.26C15.8192 30.9879 16.2484 31.649 16.7997 32.2003C17.351 32.7516 18.0121 33.1808 18.74 33.46C19.5399 33.7611 20.3854 33.9234 21.24 33.94C22.24 33.94 22.53 34 25 34C27.47 34 27.79 34 28.76 33.94C29.6146 33.9234 30.4601 33.7611 31.26 33.46C31.9879 33.1808 32.649 32.7516 33.2003 32.2003C33.7516 31.649 34.1808 30.9879 34.46 30.26C34.7611 29.4601 34.9234 28.6146 34.94 27.76C34.94 26.76 35 26.46 35 24C35 21.54 35 21.22 34.94 20.24ZM32.94 27.67C32.9225 28.3046 32.8043 28.9324 32.59 29.53C32.4128 30.0023 32.1327 30.4293 31.77 30.78C31.4214 31.1428 30.9936 31.4201 30.52 31.59C29.921 31.8131 29.289 31.9348 28.65 31.95C27.71 31.95 27.42 32 24.99 32C22.56 32 22.28 32 21.34 32C20.702 31.9835 20.0708 31.8654 19.47 31.65C18.9977 31.4728 18.5707 31.1927 18.22 30.83C17.8572 30.4814 17.5799 30.0536 17.41 29.58C17.1878 28.9842 17.0661 28.3557 17.05 27.72C17.05 26.72 17.05 26.47 17.05 24.05C17.05 21.63 17.05 21.34 17.05 20.38C17.0672 19.7412 17.1888 19.1095 17.41 18.51C17.5826 18.0406 17.8595 17.6166 18.22 17.27C18.5686 16.9072 18.9964 16.6299 19.47 16.46C20.069 16.2369 20.701 16.1152 21.34 16.1C22.28 16 22.57 16 25 16C27.43 16 27.72 16 28.66 16C29.3021 16.0163 29.9373 16.1379 30.54 16.36C31.0094 16.5326 31.4334 16.8095 31.78 17.17C32.1428 17.5186 32.4201 17.9464 32.59 18.42C32.8348 19.0286 32.9735 19.6746 33 20.33C33 21.33 33.05 21.58 33.05 24C33.05 26.42 33 26.71 33 27.67H32.94Z" fill="white"/>
<path d="M58.679 19.1847H56.4631C56.3778 18.7112 56.2192 18.2945 55.9872 17.9347C55.7552 17.5748 55.4711 17.2694 55.1349 17.0185C54.7988 16.7675 54.4223 16.5781 54.0057 16.4503C53.5938 16.3224 53.1558 16.2585 52.6918 16.2585C51.8537 16.2585 51.1032 16.4692 50.4403 16.8906C49.7822 17.312 49.2614 17.9299 48.8778 18.7443C48.4991 19.5587 48.3097 20.553 48.3097 21.7273C48.3097 22.911 48.4991 23.91 48.8778 24.7244C49.2614 25.5388 49.7846 26.1544 50.4474 26.571C51.1103 26.9877 51.8561 27.196 52.6847 27.196C53.1439 27.196 53.5795 27.1345 53.9915 27.0114C54.4081 26.8835 54.7846 26.6965 55.1207 26.4503C55.4569 26.2041 55.741 25.9034 55.973 25.5483C56.2098 25.1884 56.3731 24.7765 56.4631 24.3125L58.679 24.3196C58.5606 25.0346 58.331 25.6927 57.9901 26.294C57.6539 26.8906 57.2206 27.4067 56.6903 27.8423C56.1648 28.2732 55.5634 28.607 54.8864 28.8438C54.2093 29.0805 53.4706 29.1989 52.6705 29.1989C51.411 29.1989 50.2888 28.9006 49.304 28.304C48.3191 27.7027 47.5426 26.8433 46.9744 25.7259C46.411 24.6084 46.1293 23.2756 46.1293 21.7273C46.1293 20.1742 46.4134 18.8414 46.9815 17.7287C47.5497 16.6113 48.3262 15.7543 49.3111 15.1577C50.2959 14.5563 51.4157 14.2557 52.6705 14.2557C53.4422 14.2557 54.1619 14.367 54.8295 14.5895C55.5019 14.8073 56.1056 15.1293 56.6406 15.5554C57.1757 15.9768 57.6184 16.4929 57.9688 17.1037C58.3191 17.7098 58.5559 18.4034 58.679 19.1847ZM63.2582 22.5227V29H61.1346V14.4545H63.2298V19.8665H63.3647C63.6204 19.2794 64.011 18.813 64.5366 18.4673C65.0621 18.1217 65.7487 17.9489 66.5962 17.9489C67.3443 17.9489 67.9978 18.1027 68.5565 18.4105C69.1199 18.7183 69.5555 19.1776 69.8633 19.7884C70.1758 20.3944 70.332 21.152 70.332 22.0611V29H68.2085V22.3168C68.2085 21.5166 68.0025 20.8963 67.5906 20.456C67.1786 20.0109 66.6057 19.7884 65.8718 19.7884C65.3699 19.7884 64.9201 19.8949 64.5224 20.108C64.1294 20.321 63.8192 20.6335 63.592 21.0455C63.3694 21.4527 63.2582 21.9451 63.2582 22.5227ZM77.8675 29.2202C76.7927 29.2202 75.8671 28.9905 75.0906 28.5312C74.3188 28.0672 73.7222 27.4162 73.3008 26.5781C72.8841 25.7353 72.6758 24.7481 72.6758 23.6165C72.6758 22.4991 72.8841 21.5142 73.3008 20.6619C73.7222 19.8097 74.3093 19.1444 75.0621 18.6662C75.8197 18.188 76.7051 17.9489 77.7184 17.9489C78.3339 17.9489 78.9305 18.0507 79.5082 18.2543C80.0858 18.4579 80.6043 18.7775 81.0636 19.2131C81.5228 19.6487 81.8851 20.2145 82.1502 20.9105C82.4154 21.6018 82.5479 22.4422 82.5479 23.4318V24.1847H73.8761V22.5938H80.467C80.467 22.035 80.3533 21.5402 80.1261 21.1094C79.8988 20.6738 79.5792 20.3305 79.1673 20.0795C78.7601 19.8286 78.2818 19.7031 77.7326 19.7031C77.136 19.7031 76.6152 19.8499 76.1701 20.1435C75.7298 20.4323 75.3888 20.8111 75.1474 21.2798C74.9106 21.7438 74.7923 22.2481 74.7923 22.7926V24.0355C74.7923 24.7647 74.9201 25.3849 75.1758 25.8963C75.4362 26.4077 75.7984 26.7983 76.2624 27.0682C76.7264 27.3333 77.2686 27.4659 77.8888 27.4659C78.2913 27.4659 78.6583 27.4091 78.9897 27.2955C79.3211 27.1771 79.6076 27.0019 79.8491 26.7699C80.0906 26.5379 80.2752 26.2514 80.4031 25.9105L82.413 26.2727C82.252 26.8646 81.9632 27.383 81.5465 27.8281C81.1346 28.2685 80.6161 28.6117 79.9911 28.858C79.3709 29.0994 78.663 29.2202 77.8675 29.2202ZM89.4993 29.2202C88.4434 29.2202 87.5343 28.9811 86.772 28.5028C86.0144 28.0199 85.4321 27.3546 85.0249 26.5071C84.6177 25.6596 84.4141 24.6889 84.4141 23.5952C84.4141 22.4872 84.6224 21.5095 85.0391 20.6619C85.4557 19.8097 86.0429 19.1444 86.8004 18.6662C87.558 18.188 88.4505 17.9489 89.478 17.9489C90.3066 17.9489 91.0452 18.1027 91.6939 18.4105C92.3426 18.7135 92.8658 19.1397 93.2635 19.6889C93.666 20.2382 93.9051 20.8797 93.9808 21.6136H91.9141C91.8004 21.1023 91.54 20.6619 91.1328 20.2926C90.7304 19.9233 90.1906 19.7386 89.5135 19.7386C88.9216 19.7386 88.4032 19.8949 87.9581 20.2074C87.5178 20.5152 87.1745 20.9555 86.9283 21.5284C86.6821 22.0966 86.5589 22.7689 86.5589 23.5455C86.5589 24.3409 86.6797 25.0275 86.9212 25.6051C87.1626 26.1828 87.5036 26.6302 87.9439 26.9474C88.389 27.2647 88.9122 27.4233 89.5135 27.4233C89.916 27.4233 90.2805 27.3499 90.6072 27.2031C90.9387 27.0516 91.2157 26.8362 91.4382 26.5568C91.6655 26.2775 91.8241 25.9413 91.9141 25.5483H93.9808C93.9051 26.2538 93.6754 26.8835 93.2919 27.4375C92.9084 27.9915 92.3946 28.4271 91.7507 28.7443C91.1115 29.0616 90.361 29.2202 89.4993 29.2202ZM98.2049 25.2997L98.1907 22.7074H98.56L102.907 18.0909H105.449L100.492 23.3466H100.158L98.2049 25.2997ZM96.2518 29V14.4545H98.3754V29H96.2518ZM103.141 29L99.2347 23.8153L100.698 22.331L105.748 29H103.141ZM111.531 29.2202C110.508 29.2202 109.615 28.9858 108.853 28.517C108.091 28.0483 107.499 27.3925 107.077 26.5497C106.656 25.7069 106.445 24.7221 106.445 23.5952C106.445 22.4635 106.656 21.474 107.077 20.6264C107.499 19.7789 108.091 19.1207 108.853 18.652C109.615 18.1832 110.508 17.9489 111.531 17.9489C112.553 17.9489 113.446 18.1832 114.208 18.652C114.97 19.1207 115.562 19.7789 115.984 20.6264C116.405 21.474 116.616 22.4635 116.616 23.5952C116.616 24.7221 116.405 25.7069 115.984 26.5497C115.562 27.3925 114.97 28.0483 114.208 28.517C113.446 28.9858 112.553 29.2202 111.531 29.2202ZM111.538 27.4375C112.201 27.4375 112.75 27.2623 113.185 26.9119C113.621 26.5616 113.943 26.0952 114.151 25.5128C114.364 24.9304 114.471 24.2888 114.471 23.5881C114.471 22.892 114.364 22.2528 114.151 21.6705C113.943 21.0833 113.621 20.6122 113.185 20.2571C112.75 19.902 112.201 19.7244 111.538 19.7244C110.87 19.7244 110.316 19.902 109.876 20.2571C109.44 20.6122 109.116 21.0833 108.903 21.6705C108.694 22.2528 108.59 22.892 108.59 23.5881C108.59 24.2888 108.694 24.9304 108.903 25.5128C109.116 26.0952 109.44 26.5616 109.876 26.9119C110.316 27.2623 110.87 27.4375 111.538 27.4375ZM125.897 24.4759V18.0909H128.027V29H125.939V27.1108H125.826C125.575 27.6932 125.172 28.1785 124.618 28.5668C124.069 28.9503 123.385 29.142 122.566 29.142C121.865 29.142 121.245 28.9882 120.705 28.6804C120.17 28.3679 119.748 27.9062 119.441 27.2955C119.138 26.6847 118.986 25.9295 118.986 25.0298V18.0909H121.11V24.7741C121.11 25.5175 121.316 26.1094 121.728 26.5497C122.14 26.9901 122.675 27.2102 123.333 27.2102C123.73 27.2102 124.126 27.1108 124.519 26.9119C124.917 26.7131 125.246 26.4124 125.506 26.0099C125.771 25.6075 125.901 25.0961 125.897 24.4759ZM135.973 18.0909V19.7955H130.014V18.0909H135.973ZM131.612 15.4773H133.736V25.7969C133.736 26.2088 133.797 26.5189 133.92 26.7273C134.044 26.9309 134.202 27.0705 134.396 27.1463C134.595 27.2173 134.811 27.2528 135.043 27.2528C135.213 27.2528 135.362 27.241 135.49 27.2173C135.618 27.1937 135.717 27.1747 135.788 27.1605L136.172 28.9148C136.049 28.9621 135.874 29.0095 135.646 29.0568C135.419 29.1089 135.135 29.1373 134.794 29.142C134.235 29.1515 133.714 29.0521 133.232 28.8438C132.749 28.6354 132.358 28.3134 132.06 27.8778C131.761 27.4422 131.612 26.8954 131.612 26.2372V15.4773ZM143.786 14.4545H146.449L151.08 25.7614H151.25L155.881 14.4545H158.544V29H156.456V18.4744H156.321L152.031 28.9787H150.298L146.009 18.4673H145.874V29H143.786V14.4545ZM162.907 33.0909C162.589 33.0909 162.301 33.0649 162.04 33.0128C161.78 32.9654 161.586 32.9134 161.458 32.8565L161.969 31.1165C162.357 31.2206 162.703 31.2656 163.006 31.2514C163.309 31.2372 163.577 31.1236 163.809 30.9105C164.045 30.6974 164.254 30.3494 164.434 29.8665L164.696 29.142L160.705 18.0909H162.978L165.74 26.5568H165.854L168.617 18.0909H170.897L166.401 30.456C166.193 31.0241 165.927 31.5047 165.605 31.8977C165.283 32.2955 164.9 32.5938 164.455 32.7926C164.01 32.9915 163.494 33.0909 162.907 33.0909ZM180.55 14.4545V29H178.356V14.4545H180.55ZM185.7 22.5227V29H183.576V18.0909H185.614V19.8665H185.749C186 19.2888 186.393 18.8248 186.928 18.4744C187.468 18.1241 188.147 17.9489 188.967 17.9489C189.71 17.9489 190.361 18.1051 190.92 18.4176C191.478 18.7254 191.912 19.1847 192.219 19.7955C192.527 20.4062 192.681 21.1615 192.681 22.0611V29H190.558V22.3168C190.558 21.526 190.352 20.9081 189.94 20.4631C189.528 20.0133 188.962 19.7884 188.242 19.7884C187.75 19.7884 187.312 19.8949 186.928 20.108C186.549 20.321 186.249 20.6335 186.026 21.0455C185.808 21.4527 185.7 21.9451 185.7 22.5227ZM203.704 20.7543L201.779 21.0952C201.699 20.849 201.571 20.6146 201.396 20.392C201.225 20.1695 200.993 19.9872 200.7 19.8452C200.406 19.7031 200.039 19.6321 199.599 19.6321C198.997 19.6321 198.496 19.767 198.093 20.0369C197.691 20.3021 197.489 20.6454 197.489 21.0668C197.489 21.4313 197.624 21.7249 197.894 21.9474C198.164 22.17 198.6 22.3523 199.201 22.4943L200.934 22.892C201.938 23.1241 202.686 23.4815 203.178 23.9645C203.671 24.4474 203.917 25.0748 203.917 25.8466C203.917 26.5 203.728 27.0824 203.349 27.5938C202.975 28.1004 202.451 28.4981 201.779 28.7869C201.112 29.0758 200.337 29.2202 199.457 29.2202C198.235 29.2202 197.238 28.9598 196.467 28.4389C195.695 27.9134 195.221 27.1676 195.046 26.2017L197.099 25.8892C197.227 26.4242 197.489 26.8291 197.887 27.1037C198.285 27.3736 198.803 27.5085 199.442 27.5085C200.138 27.5085 200.695 27.3641 201.112 27.0753C201.528 26.7817 201.737 26.4242 201.737 26.0028C201.737 25.6619 201.609 25.3755 201.353 25.1435C201.102 24.9115 200.716 24.7363 200.195 24.6179L198.349 24.2131C197.331 23.9811 196.578 23.6117 196.09 23.1051C195.607 22.5985 195.366 21.9569 195.366 21.1804C195.366 20.5365 195.546 19.973 195.906 19.4901C196.265 19.0071 196.763 18.6307 197.397 18.3608C198.031 18.0862 198.758 17.9489 199.577 17.9489C200.756 17.9489 201.684 18.2045 202.362 18.7159C203.039 19.2225 203.486 19.902 203.704 20.7543ZM211.344 18.0909V19.7955H205.385V18.0909H211.344ZM206.983 15.4773H209.107V25.7969C209.107 26.2088 209.168 26.5189 209.292 26.7273C209.415 26.9309 209.573 27.0705 209.767 27.1463C209.966 27.2173 210.182 27.2528 210.414 27.2528C210.584 27.2528 210.733 27.241 210.861 27.2173C210.989 27.1937 211.088 27.1747 211.159 27.1605L211.543 28.9148C211.42 28.9621 211.245 29.0095 211.017 29.0568C210.79 29.1089 210.506 29.1373 210.165 29.142C209.606 29.1515 209.086 29.0521 208.603 28.8438C208.12 28.6354 207.729 28.3134 207.431 27.8778C207.132 27.4422 206.983 26.8954 206.983 26.2372V15.4773ZM216.868 29.2415C216.177 29.2415 215.552 29.1136 214.993 28.858C214.434 28.5975 213.991 28.2211 213.665 27.7287C213.343 27.2363 213.182 26.6326 213.182 25.9176C213.182 25.3021 213.3 24.7955 213.537 24.3977C213.774 24 214.093 23.6851 214.496 23.4531C214.898 23.2211 215.348 23.0459 215.845 22.9276C216.342 22.8092 216.849 22.7192 217.365 22.6577C218.018 22.5819 218.549 22.5204 218.956 22.473C219.363 22.4209 219.659 22.3381 219.844 22.2244C220.028 22.1108 220.121 21.9261 220.121 21.6705V21.6207C220.121 21.0005 219.946 20.5199 219.595 20.179C219.25 19.8381 218.733 19.6676 218.047 19.6676C217.332 19.6676 216.768 19.8262 216.357 20.1435C215.949 20.456 215.668 20.804 215.511 21.1875L213.516 20.733C213.752 20.0701 214.098 19.535 214.553 19.1278C215.012 18.7159 215.54 18.4176 216.136 18.233C216.733 18.0436 217.36 17.9489 218.018 17.9489C218.454 17.9489 218.916 18.0009 219.403 18.1051C219.896 18.2045 220.355 18.3892 220.781 18.6591C221.212 18.929 221.565 19.3149 221.839 19.8168C222.114 20.3139 222.251 20.9602 222.251 21.7557V29H220.178V27.5085H220.092C219.955 27.7831 219.749 28.053 219.474 28.3182C219.2 28.5833 218.847 28.8035 218.416 28.9787C217.985 29.1539 217.469 29.2415 216.868 29.2415ZM217.33 27.5369C217.917 27.5369 218.419 27.4209 218.835 27.1889C219.257 26.9569 219.576 26.6539 219.794 26.2798C220.017 25.901 220.128 25.4962 220.128 25.0653V23.6591C220.052 23.7348 219.905 23.8059 219.688 23.8722C219.474 23.9337 219.231 23.9882 218.956 24.0355C218.681 24.0781 218.414 24.1184 218.153 24.1562C217.893 24.1894 217.675 24.2178 217.5 24.2415C217.088 24.2936 216.712 24.3812 216.371 24.5043C216.035 24.6274 215.765 24.8049 215.561 25.0369C215.362 25.2642 215.263 25.5672 215.263 25.946C215.263 26.4716 215.457 26.8693 215.845 27.1392C216.233 27.4044 216.728 27.5369 217.33 27.5369ZM229.654 33.3182C228.787 33.3182 228.042 33.2045 227.417 32.9773C226.796 32.75 226.29 32.4493 225.897 32.0753C225.504 31.7012 225.21 31.2917 225.016 30.8466L226.841 30.0938C226.969 30.3021 227.14 30.5223 227.353 30.7543C227.57 30.991 227.864 31.1922 228.233 31.358C228.607 31.5237 229.088 31.6065 229.675 31.6065C230.48 31.6065 231.145 31.41 231.671 31.017C232.196 30.6288 232.459 30.0085 232.459 29.1562V27.0114H232.324C232.196 27.2434 232.012 27.5014 231.77 27.7855C231.533 28.0696 231.207 28.3158 230.79 28.5241C230.373 28.7325 229.831 28.8366 229.164 28.8366C228.302 28.8366 227.525 28.6354 226.834 28.233C226.148 27.8258 225.603 27.2268 225.201 26.4361C224.803 25.6406 224.604 24.6629 224.604 23.5028C224.604 22.3428 224.801 21.3485 225.194 20.5199C225.591 19.6913 226.136 19.0568 226.827 18.6165C227.518 18.1714 228.302 17.9489 229.178 17.9489C229.855 17.9489 230.402 18.0625 230.819 18.2898C231.235 18.5123 231.56 18.7727 231.792 19.071C232.028 19.3693 232.211 19.6321 232.338 19.8594H232.495V18.0909H234.576V29.2415C234.576 30.179 234.358 30.9484 233.922 31.5497C233.487 32.151 232.897 32.5961 232.154 32.8849C231.415 33.1738 230.582 33.3182 229.654 33.3182ZM229.632 27.0753C230.243 27.0753 230.759 26.9332 231.181 26.6491C231.607 26.3603 231.929 25.9484 232.147 25.4134C232.369 24.8736 232.48 24.2273 232.48 23.4744C232.48 22.7405 232.372 22.0942 232.154 21.5355C231.936 20.9768 231.616 20.5412 231.195 20.2287C230.774 19.9115 230.253 19.7528 229.632 19.7528C228.993 19.7528 228.461 19.9186 228.034 20.25C227.608 20.5767 227.286 21.0218 227.069 21.5852C226.855 22.1487 226.749 22.7784 226.749 23.4744C226.749 24.1894 226.858 24.8168 227.076 25.3565C227.293 25.8963 227.615 26.3177 228.042 26.6207C228.472 26.9238 229.003 27.0753 229.632 27.0753ZM237.424 29V18.0909H239.476V19.8239H239.59C239.789 19.2367 240.139 18.7751 240.641 18.4389C241.148 18.098 241.721 17.9276 242.36 17.9276C242.492 17.9276 242.649 17.9323 242.828 17.9418C243.013 17.9512 243.158 17.9631 243.262 17.9773V20.0085C243.176 19.9848 243.025 19.9588 242.807 19.9304C242.589 19.8973 242.372 19.8807 242.154 19.8807C241.652 19.8807 241.204 19.9872 240.811 20.2003C240.423 20.4086 240.115 20.6998 239.888 21.0739C239.661 21.4432 239.547 21.8646 239.547 22.3381V29H237.424ZM248.176 29.2415C247.485 29.2415 246.86 29.1136 246.301 28.858C245.743 28.5975 245.3 28.2211 244.973 27.7287C244.651 27.2363 244.49 26.6326 244.49 25.9176C244.49 25.3021 244.609 24.7955 244.846 24.3977C245.082 24 245.402 23.6851 245.804 23.4531C246.207 23.2211 246.657 23.0459 247.154 22.9276C247.651 22.8092 248.158 22.7192 248.674 22.6577C249.327 22.5819 249.857 22.5204 250.265 22.473C250.672 22.4209 250.968 22.3381 251.152 22.2244C251.337 22.1108 251.429 21.9261 251.429 21.6705V21.6207C251.429 21.0005 251.254 20.5199 250.904 20.179C250.558 19.8381 250.042 19.6676 249.355 19.6676C248.641 19.6676 248.077 19.8262 247.665 20.1435C247.258 20.456 246.976 20.804 246.82 21.1875L244.824 20.733C245.061 20.0701 245.407 19.535 245.861 19.1278C246.32 18.7159 246.848 18.4176 247.445 18.233C248.042 18.0436 248.669 17.9489 249.327 17.9489C249.763 17.9489 250.224 18.0009 250.712 18.1051C251.204 18.2045 251.664 18.3892 252.09 18.6591C252.521 18.929 252.873 19.3149 253.148 19.8168C253.423 20.3139 253.56 20.9602 253.56 21.7557V29H251.486V27.5085H251.401C251.264 27.7831 251.058 28.053 250.783 28.3182C250.508 28.5833 250.156 28.8035 249.725 28.9787C249.294 29.1539 248.778 29.2415 248.176 29.2415ZM248.638 27.5369C249.225 27.5369 249.727 27.4209 250.144 27.1889C250.565 26.9569 250.885 26.6539 251.103 26.2798C251.325 25.901 251.436 25.4962 251.436 25.0653V23.6591C251.361 23.7348 251.214 23.8059 250.996 23.8722C250.783 23.9337 250.539 23.9882 250.265 24.0355C249.99 24.0781 249.722 24.1184 249.462 24.1562C249.202 24.1894 248.984 24.2178 248.809 24.2415C248.397 24.2936 248.02 24.3812 247.679 24.5043C247.343 24.6274 247.073 24.8049 246.87 25.0369C246.671 25.2642 246.571 25.5672 246.571 25.946C246.571 26.4716 246.766 26.8693 247.154 27.1392C247.542 27.4044 248.037 27.5369 248.638 27.5369ZM256.388 29V18.0909H258.427V19.8665H258.562C258.789 19.2652 259.161 18.7964 259.677 18.4602C260.193 18.1193 260.811 17.9489 261.531 17.9489C262.26 17.9489 262.871 18.1193 263.363 18.4602C263.86 18.8011 264.227 19.2699 264.464 19.8665H264.577C264.838 19.2841 265.252 18.8201 265.82 18.4744C266.388 18.1241 267.066 17.9489 267.852 17.9489C268.841 17.9489 269.648 18.259 270.273 18.8793C270.903 19.4995 271.218 20.4347 271.218 21.6847V29H269.094V21.8835C269.094 21.1449 268.893 20.6098 268.491 20.2784C268.088 19.947 267.608 19.7812 267.049 19.7812C266.358 19.7812 265.82 19.9943 265.437 20.4205C265.053 20.8419 264.862 21.384 264.862 22.0469V29H262.745V21.7486C262.745 21.1567 262.56 20.6809 262.191 20.321C261.822 19.9612 261.341 19.7812 260.749 19.7812C260.347 19.7812 259.975 19.8878 259.634 20.1009C259.298 20.3092 259.026 20.6004 258.817 20.9744C258.614 21.3485 258.512 21.7817 258.512 22.2741V29H256.388Z" fill="white"/>
</svg>
