<svg width="266" height="44" viewBox="0 0 266 44" fill="none" xmlns="http://www.w3.org/2000/svg">
<rect width="266" height="44" rx="5" fill="#1D9BF0"/>
<path d="M37.9912 13.9502C37.9913 13.7736 37.9446 13.6001 37.8558 13.4474C37.7671 13.2946 37.6394 13.1682 37.4859 13.0808C37.3324 12.9935 37.1584 12.9484 36.9818 12.9502C36.8052 12.9519 36.6322 13.0005 36.4804 13.0908C35.8951 13.4392 35.265 13.706 34.6074 13.8838C33.6684 13.0781 32.4708 12.6371 31.2334 12.6416C29.876 12.6432 28.5723 13.1722 27.5976 14.117C26.623 15.0618 26.0536 16.3484 26.0098 17.7051C23.3338 17.2784 20.9084 15.8816 19.1962 13.7813C19.0931 13.6561 18.9613 13.5576 18.8121 13.494C18.6629 13.4304 18.5006 13.4037 18.3388 13.416C18.1772 13.4293 18.0212 13.4818 17.8844 13.5689C17.7476 13.656 17.6341 13.7752 17.5537 13.916C17.1412 14.6358 16.9043 15.4428 16.8622 16.2713C16.8201 17.0999 16.9741 17.9267 17.3115 18.6846L17.3095 18.6865C17.1579 18.7799 17.0327 18.9107 16.946 19.0663C16.8593 19.2218 16.814 19.3971 16.8144 19.5752C16.8126 19.7221 16.8214 19.869 16.8408 20.0146C16.9429 21.2729 17.5006 22.4507 18.4091 23.3271C18.3475 23.4446 18.3099 23.5731 18.2985 23.7052C18.2871 23.8373 18.3021 23.9704 18.3427 24.0967C18.7388 25.3308 19.5812 26.3727 20.705 27.0185C19.5633 27.46 18.3305 27.614 17.1152 27.4668C16.8903 27.4386 16.6624 27.4876 16.469 27.6059C16.2757 27.7242 16.1282 27.9047 16.0509 28.1178C15.9736 28.3309 15.971 28.5639 16.0435 28.7787C16.1161 28.9935 16.2595 29.1772 16.4502 29.2998C18.5403 30.646 20.9739 31.3617 23.46 31.3613C26.2792 31.393 29.0299 30.4921 31.2842 28.7988C33.5385 27.1054 35.1699 24.7145 35.9248 21.998C36.2778 20.8146 36.4581 19.5865 36.46 18.3516C36.46 18.2861 36.46 18.2188 36.459 18.1514C36.9811 17.5883 37.3855 16.9267 37.6486 16.2053C37.9117 15.4839 38.0282 14.7172 37.9912 13.9502V13.9502ZM34.6845 17.1621C34.5194 17.3575 34.4358 17.6089 34.4511 17.8643C34.4609 18.0293 34.4599 18.1953 34.4599 18.3516C34.4579 19.3951 34.3049 20.4329 34.0058 21.4326C33.3893 23.744 32.015 25.7817 30.1029 27.2192C28.1908 28.6568 25.8516 29.4111 23.46 29.3613C22.6008 29.3616 21.7447 29.2606 20.9092 29.0606C21.9746 28.7172 22.9708 28.1879 23.8516 27.4971C24.0138 27.3693 24.1325 27.1945 24.1914 26.9967C24.2504 26.7988 24.2466 26.5875 24.1807 26.3918C24.1148 26.1962 23.99 26.0257 23.8233 25.9038C23.6567 25.7819 23.4564 25.7145 23.25 25.7109C22.4188 25.698 21.6251 25.363 21.0361 24.7764C21.1855 24.7481 21.3339 24.7129 21.4814 24.6709C21.6974 24.6094 21.8865 24.477 22.0181 24.295C22.1497 24.1131 22.2162 23.8921 22.207 23.6677C22.1977 23.4433 22.1132 23.2285 21.9671 23.058C21.821 22.8874 21.6217 22.7711 21.4013 22.7275C20.9189 22.6323 20.4649 22.427 20.0746 22.1277C19.6844 21.8284 19.3685 21.4432 19.1513 21.002C19.3321 21.0266 19.5139 21.0419 19.6962 21.0479C19.9128 21.0511 20.1248 20.9854 20.3016 20.8603C20.4784 20.7351 20.6108 20.5569 20.6796 20.3516C20.7456 20.1443 20.7422 19.9212 20.67 19.7161C20.5977 19.511 20.4606 19.335 20.2793 19.2148C19.8394 18.9218 19.4791 18.5243 19.2306 18.0578C18.9821 17.5913 18.8532 17.0705 18.8554 16.542C18.8554 16.4756 18.8574 16.4092 18.8613 16.3438C21.1026 18.434 24.0096 19.6662 27.0703 19.8233C27.2248 19.8293 27.3786 19.8002 27.5202 19.7382C27.6618 19.6761 27.7875 19.5826 27.8877 19.4649C27.9869 19.346 28.0571 19.2057 28.0928 19.055C28.1286 18.9044 28.1289 18.7475 28.0937 18.5967C28.0365 18.3581 28.0073 18.1136 28.0068 17.8682C28.0077 17.0127 28.3479 16.1925 28.9528 15.5876C29.5577 14.9827 30.3779 14.6425 31.2334 14.6416C31.6735 14.6404 32.1091 14.7305 32.5127 14.9062C32.9162 15.0818 33.279 15.3392 33.5781 15.6621C33.6934 15.7862 33.8386 15.8787 33.9998 15.9309C34.161 15.983 34.3328 15.993 34.499 15.96C34.9097 15.8801 35.3146 15.7724 35.7109 15.6377C35.4406 16.1907 35.0952 16.7037 34.6845 17.1621V17.1621Z" fill="white"/>
<path d="M50.598 29V14.4545H59.6179V16.3438H52.7926V20.7756H58.9716V22.6577H52.7926V29H50.598ZM65.9407 29.2202C64.918 29.2202 64.0254 28.9858 63.2631 28.517C62.5008 28.0483 61.909 27.3925 61.4876 26.5497C61.0662 25.7069 60.8555 24.7221 60.8555 23.5952C60.8555 22.4635 61.0662 21.474 61.4876 20.6264C61.909 19.7789 62.5008 19.1207 63.2631 18.652C64.0254 18.1832 64.918 17.9489 65.9407 17.9489C66.9634 17.9489 67.8559 18.1832 68.6183 18.652C69.3806 19.1207 69.9724 19.7789 70.3938 20.6264C70.8152 21.474 71.0259 22.4635 71.0259 23.5952C71.0259 24.7221 70.8152 25.7069 70.3938 26.5497C69.9724 27.3925 69.3806 28.0483 68.6183 28.517C67.8559 28.9858 66.9634 29.2202 65.9407 29.2202ZM65.9478 27.4375C66.6107 27.4375 67.1599 27.2623 67.5955 26.9119C68.0311 26.5616 68.3531 26.0952 68.5614 25.5128C68.7745 24.9304 68.881 24.2888 68.881 23.5881C68.881 22.892 68.7745 22.2528 68.5614 21.6705C68.3531 21.0833 68.0311 20.6122 67.5955 20.2571C67.1599 19.902 66.6107 19.7244 65.9478 19.7244C65.2802 19.7244 64.7262 19.902 64.2859 20.2571C63.8503 20.6122 63.5259 21.0833 63.3129 21.6705C63.1045 22.2528 63.0004 22.892 63.0004 23.5881C63.0004 24.2888 63.1045 24.9304 63.3129 25.5128C63.5259 26.0952 63.8503 26.5616 64.2859 26.9119C64.7262 27.2623 65.2802 27.4375 65.9478 27.4375ZM75.5199 14.4545V29H73.3963V14.4545H75.5199ZM80.5004 14.4545V29H78.3768V14.4545H80.5004ZM87.9524 29.2202C86.9297 29.2202 86.0372 28.9858 85.2749 28.517C84.5125 28.0483 83.9207 27.3925 83.4993 26.5497C83.0779 25.7069 82.8672 24.7221 82.8672 23.5952C82.8672 22.4635 83.0779 21.474 83.4993 20.6264C83.9207 19.7789 84.5125 19.1207 85.2749 18.652C86.0372 18.1832 86.9297 17.9489 87.9524 17.9489C88.9751 17.9489 89.8677 18.1832 90.63 18.652C91.3923 19.1207 91.9841 19.7789 92.4055 20.6264C92.8269 21.474 93.0376 22.4635 93.0376 23.5952C93.0376 24.7221 92.8269 25.7069 92.4055 26.5497C91.9841 27.3925 91.3923 28.0483 90.63 28.517C89.8677 28.9858 88.9751 29.2202 87.9524 29.2202ZM87.9595 27.4375C88.6224 27.4375 89.1716 27.2623 89.6072 26.9119C90.0429 26.5616 90.3648 26.0952 90.5732 25.5128C90.7862 24.9304 90.8928 24.2888 90.8928 23.5881C90.8928 22.892 90.7862 22.2528 90.5732 21.6705C90.3648 21.0833 90.0429 20.6122 89.6072 20.2571C89.1716 19.902 88.6224 19.7244 87.9595 19.7244C87.2919 19.7244 86.7379 19.902 86.2976 20.2571C85.862 20.6122 85.5376 21.0833 85.3246 21.6705C85.1162 22.2528 85.0121 22.892 85.0121 23.5881C85.0121 24.2888 85.1162 24.9304 85.3246 25.5128C85.5376 26.0952 85.862 26.5616 86.2976 26.9119C86.7379 27.2623 87.2919 27.4375 87.9595 27.4375ZM97.4411 29L94.2308 18.0909H96.4254L98.5632 26.1023H98.6697L100.815 18.0909H103.009L105.14 26.0668H105.246L107.37 18.0909H109.565L106.362 29H104.195L101.979 21.1236H101.816L99.6001 29H97.4411ZM117.043 14.4545H119.707L124.337 25.7614H124.508L129.138 14.4545H131.802V29H129.714V18.4744H129.579L125.289 28.9787H123.556L119.266 18.4673H119.131V29H117.043V14.4545ZM139.524 29.2202C138.449 29.2202 137.523 28.9905 136.747 28.5312C135.975 28.0672 135.378 27.4162 134.957 26.5781C134.54 25.7353 134.332 24.7481 134.332 23.6165C134.332 22.4991 134.54 21.5142 134.957 20.6619C135.378 19.8097 135.966 19.1444 136.718 18.6662C137.476 18.188 138.361 17.9489 139.375 17.9489C139.99 17.9489 140.587 18.0507 141.164 18.2543C141.742 18.4579 142.261 18.7775 142.72 19.2131C143.179 19.6487 143.541 20.2145 143.806 20.9105C144.072 21.6018 144.204 22.4422 144.204 23.4318V24.1847H135.532V22.5938H142.123C142.123 22.035 142.01 21.5402 141.782 21.1094C141.555 20.6738 141.235 20.3305 140.824 20.0795C140.416 19.8286 139.938 19.7031 139.389 19.7031C138.792 19.7031 138.271 19.8499 137.826 20.1435C137.386 20.4323 137.045 20.8111 136.804 21.2798C136.567 21.7438 136.449 22.2481 136.449 22.7926V24.0355C136.449 24.7647 136.576 25.3849 136.832 25.8963C137.092 26.4077 137.455 26.7983 137.919 27.0682C138.383 27.3333 138.925 27.4659 139.545 27.4659C139.948 27.4659 140.315 27.4091 140.646 27.2955C140.977 27.1771 141.264 27.0019 141.505 26.7699C141.747 26.5379 141.931 26.2514 142.059 25.9105L144.069 26.2727C143.908 26.8646 143.619 27.383 143.203 27.8281C142.791 28.2685 142.272 28.6117 141.647 28.858C141.027 29.0994 140.319 29.2202 139.524 29.2202ZM164.659 21.7273C164.659 23.2803 164.375 24.6155 163.806 25.733C163.238 26.8456 162.459 27.7027 161.47 28.304C160.485 28.9006 159.365 29.1989 158.11 29.1989C156.851 29.1989 155.726 28.9006 154.737 28.304C153.752 27.7027 152.975 26.8433 152.407 25.7259C151.839 24.6084 151.555 23.2756 151.555 21.7273C151.555 20.1742 151.839 18.8414 152.407 17.7287C152.975 16.6113 153.752 15.7543 154.737 15.1577C155.726 14.5563 156.851 14.2557 158.11 14.2557C159.365 14.2557 160.485 14.5563 161.47 15.1577C162.459 15.7543 163.238 16.6113 163.806 17.7287C164.375 18.8414 164.659 20.1742 164.659 21.7273ZM162.485 21.7273C162.485 20.5436 162.294 19.5469 161.91 18.7372C161.531 17.9228 161.011 17.3073 160.348 16.8906C159.69 16.4692 158.944 16.2585 158.11 16.2585C157.272 16.2585 156.524 16.4692 155.866 16.8906C155.208 17.3073 154.687 17.9228 154.304 18.7372C153.925 19.5469 153.735 20.5436 153.735 21.7273C153.735 22.911 153.925 23.91 154.304 24.7244C154.687 25.5341 155.208 26.1496 155.866 26.571C156.524 26.9877 157.272 27.196 158.11 27.196C158.944 27.196 159.69 26.9877 160.348 26.571C161.011 26.1496 161.531 25.5341 161.91 24.7244C162.294 23.91 162.485 22.911 162.485 21.7273ZM169.348 22.5227V29H167.224V18.0909H169.263V19.8665H169.398C169.649 19.2888 170.042 18.8248 170.577 18.4744C171.116 18.1241 171.796 17.9489 172.615 17.9489C173.358 17.9489 174.009 18.1051 174.568 18.4176C175.127 18.7254 175.56 19.1847 175.868 19.7955C176.176 20.4062 176.33 21.1615 176.33 22.0611V29H174.206V22.3168C174.206 21.526 174 20.9081 173.588 20.4631C173.176 20.0133 172.61 19.7884 171.891 19.7884C171.398 19.7884 170.96 19.8949 170.577 20.108C170.198 20.321 169.897 20.6335 169.675 21.0455C169.457 21.4527 169.348 21.9451 169.348 22.5227ZM183.924 16.3438V14.4545H195.181V16.3438H190.642V29H188.455V16.3438H183.924ZM198.613 29L195.403 18.0909H197.597L199.735 26.1023H199.842L201.987 18.0909H204.181L206.312 26.0668H206.418L208.542 18.0909H210.737L207.533 29H205.367L203.151 21.1236H202.988L200.772 29H198.613ZM212.752 29V18.0909H214.875V29H212.752ZM213.824 16.4077C213.455 16.4077 213.138 16.2846 212.873 16.0384C212.612 15.7874 212.482 15.4891 212.482 15.1435C212.482 14.7931 212.612 14.4948 212.873 14.2486C213.138 13.9976 213.455 13.8722 213.824 13.8722C214.194 13.8722 214.508 13.9976 214.769 14.2486C215.034 14.4948 215.167 14.7931 215.167 15.1435C215.167 15.4891 215.034 15.7874 214.769 16.0384C214.508 16.2846 214.194 16.4077 213.824 16.4077ZM222.825 18.0909V19.7955H216.866V18.0909H222.825ZM218.464 15.4773H220.587V25.7969C220.587 26.2088 220.649 26.5189 220.772 26.7273C220.895 26.9309 221.054 27.0705 221.248 27.1463C221.447 27.2173 221.662 27.2528 221.894 27.2528C222.065 27.2528 222.214 27.241 222.342 27.2173C222.469 27.1937 222.569 27.1747 222.64 27.1605L223.023 28.9148C222.9 28.9621 222.725 29.0095 222.498 29.0568C222.271 29.1089 221.987 29.1373 221.646 29.142C221.087 29.1515 220.566 29.0521 220.083 28.8438C219.6 28.6354 219.21 28.3134 218.911 27.8778C218.613 27.4422 218.464 26.8954 218.464 26.2372V15.4773ZM230.266 18.0909V19.7955H224.307V18.0909H230.266ZM225.905 15.4773H228.029V25.7969C228.029 26.2088 228.09 26.5189 228.213 26.7273C228.337 26.9309 228.495 27.0705 228.689 27.1463C228.888 27.2173 229.104 27.2528 229.336 27.2528C229.506 27.2528 229.655 27.241 229.783 27.2173C229.911 27.1937 230.01 27.1747 230.081 27.1605L230.465 28.9148C230.342 28.9621 230.167 29.0095 229.939 29.0568C229.712 29.1089 229.428 29.1373 229.087 29.142C228.528 29.1515 228.007 29.0521 227.525 28.8438C227.042 28.6354 226.651 28.3134 226.353 27.8778C226.054 27.4422 225.905 26.8954 225.905 26.2372V15.4773ZM237.2 29.2202C236.125 29.2202 235.199 28.9905 234.423 28.5312C233.651 28.0672 233.054 27.4162 232.633 26.5781C232.216 25.7353 232.008 24.7481 232.008 23.6165C232.008 22.4991 232.216 21.5142 232.633 20.6619C233.054 19.8097 233.641 19.1444 234.394 18.6662C235.152 18.188 236.037 17.9489 237.05 17.9489C237.666 17.9489 238.263 18.0507 238.84 18.2543C239.418 18.4579 239.936 18.7775 240.396 19.2131C240.855 19.6487 241.217 20.2145 241.482 20.9105C241.747 21.6018 241.88 22.4422 241.88 23.4318V24.1847H233.208V22.5938H239.799C239.799 22.035 239.685 21.5402 239.458 21.1094C239.231 20.6738 238.911 20.3305 238.499 20.0795C238.092 19.8286 237.614 19.7031 237.065 19.7031C236.468 19.7031 235.947 19.8499 235.502 20.1435C235.062 20.4323 234.721 20.8111 234.479 21.2798C234.243 21.7438 234.124 22.2481 234.124 22.7926V24.0355C234.124 24.7647 234.252 25.3849 234.508 25.8963C234.768 26.4077 235.13 26.7983 235.594 27.0682C236.058 27.3333 236.601 27.4659 237.221 27.4659C237.623 27.4659 237.99 27.4091 238.322 27.2955C238.653 27.1771 238.94 27.0019 239.181 26.7699C239.423 26.5379 239.607 26.2514 239.735 25.9105L241.745 26.2727C241.584 26.8646 241.295 27.383 240.879 27.8281C240.467 28.2685 239.948 28.6117 239.323 28.858C238.703 29.0994 237.995 29.2202 237.2 29.2202ZM244.236 29V18.0909H246.289V19.8239H246.402C246.601 19.2367 246.952 18.7751 247.453 18.4389C247.96 18.098 248.533 17.9276 249.172 17.9276C249.305 17.9276 249.461 17.9323 249.641 17.9418C249.826 17.9512 249.97 17.9631 250.074 17.9773V20.0085C249.989 19.9848 249.837 19.9588 249.62 19.9304C249.402 19.8973 249.184 19.8807 248.966 19.8807C248.464 19.8807 248.017 19.9872 247.624 20.2003C247.236 20.4086 246.928 20.6998 246.701 21.0739C246.473 21.4432 246.36 21.8646 246.36 22.3381V29H244.236Z" fill="white"/>
</svg>
