<svg width="393" height="60" viewBox="0 0 393 60" fill="none" xmlns="http://www.w3.org/2000/svg">
<rect width="393" height="60" rx="5" fill="#4353FF"/>
<g clip-path="url(#clip0_1156_34)">
<path d="M175.376 26.7314C175.376 24.5917 173.295 22.3192 169.695 22.3192C165.652 22.3192 161.21 25.2853 160.531 31.2027C159.837 37.179 163.556 39.8352 167.304 39.8352C171.052 39.8352 173.015 38.3743 175.022 36.4265C173.295 34.2573 171.067 35.2607 170.639 35.482C170.167 35.7182 169.562 36.0428 168.322 36.0428C166.876 36.0428 165.401 35.3935 165.401 32.6931C174.668 31.7782 175.376 28.8711 175.376 26.7314ZM170.787 27.0856C170.728 27.7496 170.462 28.8859 165.77 29.5204C166.758 26.0084 168.647 25.7427 169.518 25.7427C170.329 25.7427 170.846 26.3773 170.787 27.0856ZM155.086 27.6611C155.086 27.6611 153.094 33.9179 152.931 34.4343C152.872 33.9031 151.411 22.6734 151.411 22.6734C148.017 22.6734 146.202 25.0935 145.243 27.6463C145.243 27.6463 142.823 33.9179 142.617 34.4491C142.602 33.9621 142.248 27.7201 142.248 27.7201C142.041 24.5917 139.178 22.6881 136.862 22.6881L139.665 39.7024C143.222 39.6877 145.14 37.2823 146.143 34.7295C146.143 34.7295 148.283 29.1958 148.372 28.9449C148.386 29.181 149.906 39.7024 149.906 39.7024C153.477 39.7024 155.396 37.4447 156.429 34.9803L161.431 22.6881C157.904 22.6881 156.045 25.0935 155.086 27.6611ZM188.48 22.2897C186.281 22.2897 184.599 23.485 183.182 25.241V25.2263L184.451 15C181.53 15 179.154 17.5381 178.696 21.3158L176.483 39.5696C178.165 39.5696 179.951 39.0826 180.91 37.8431C181.766 38.9498 183.049 39.8352 184.953 39.8352C189.882 39.8352 193.261 34.1097 193.261 28.7383C193.231 23.8392 190.856 22.2897 188.48 22.2897ZM188.022 31.0698C187.506 34.0654 185.838 36.1018 184.23 36.1018C182.607 36.1018 181.913 35.3788 181.913 35.3788C182.223 32.7521 182.415 31.1436 183.005 29.7565C183.595 28.3694 184.997 26.1559 186.458 26.1559C187.89 26.1559 188.539 28.0595 188.022 31.0698ZM205.568 22.6881H202.13L202.144 22.5111C202.381 20.2681 202.912 19.0876 204.668 18.8957C205.863 18.7777 206.394 18.1579 206.527 17.4791C206.63 16.9479 206.955 15.1033 206.955 15.1033C200.049 15.059 197.88 18.0398 197.319 22.5848L197.304 22.6881H197.23C196.109 22.6881 194.869 23.9572 194.663 25.5657L194.589 26.1559H196.891L194.958 42.1225L194.368 44.9852C194.442 44.9852 194.53 45 194.604 45C197.835 44.8819 199.901 42.3291 200.359 38.6252L201.864 26.1559H202.941C204.004 26.1559 205.243 25.0935 205.465 23.3227L205.568 22.6881ZM223.453 22.393C219.483 22.393 215.735 25.3148 214.584 29.9041C213.433 34.4934 215.174 39.9238 221.018 39.9238C226.847 39.9238 230.211 34.272 230.211 29.5647C230.211 24.8869 227.039 22.393 223.453 22.393ZM225.061 30.9223C224.855 33.003 223.94 36.1608 221.431 36.1608C218.908 36.1608 219.262 32.4717 219.513 30.7157C219.778 28.8416 220.826 26.1707 223.084 26.1707C225.106 26.1707 225.297 28.576 225.061 30.9223ZM249.823 27.6611C249.823 27.6611 247.831 33.9179 247.668 34.4343C247.609 33.9031 246.148 22.6734 246.148 22.6734C242.754 22.6734 240.939 25.0935 239.98 27.6463C239.98 27.6463 237.56 33.9179 237.353 34.4491C237.339 33.9621 236.985 27.7201 236.985 27.7201C236.778 24.5917 233.915 22.6881 231.598 22.6881L234.387 39.7024C237.944 39.6877 239.862 37.2823 240.866 34.7295C240.866 34.7295 243.005 29.1958 243.079 28.9449C243.108 29.181 244.614 39.7024 244.614 39.7024C248.185 39.7024 250.103 37.4447 251.136 34.9803L256.138 22.6881C252.626 22.6881 250.767 25.0935 249.823 27.6611ZM208.814 15.1033L205.922 38.4333L205.332 41.3109C205.406 41.3109 205.494 41.3256 205.568 41.3256C208.682 41.2814 210.895 38.5514 211.308 35.1131L212.976 21.729C213.477 17.6414 211.043 15.1033 208.814 15.1033Z" fill="white"/>
</g>
<defs>
<clipPath id="clip0_1156_34">
<rect width="119.277" height="30" fill="white" transform="translate(136.862 15)"/>
</clipPath>
</defs>
</svg>
