<svg width="201" height="20" viewBox="0 0 201 20" fill="none" xmlns="http://www.w3.org/2000/svg">
<path d="M5.44602 19L0.451705 1.54545H4.48295L7.37216 13.6733H7.51705L10.7045 1.54545H14.1562L17.3352 13.6989H17.4886L20.3778 1.54545H24.4091L19.4148 19H15.8182L12.4943 7.58807H12.358L9.04261 19H5.44602ZM30.8757 19.2557C29.5291 19.2557 28.37 18.983 27.3984 18.4375C26.4325 17.8864 25.6882 17.108 25.1655 16.1023C24.6428 15.0909 24.3814 13.8949 24.3814 12.5142C24.3814 11.1676 24.6428 9.9858 25.1655 8.96875C25.6882 7.9517 26.424 7.15909 27.3729 6.59091C28.3274 6.02273 29.4467 5.73864 30.7308 5.73864C31.5945 5.73864 32.3984 5.87784 33.1428 6.15625C33.8928 6.42898 34.5462 6.84091 35.103 7.39205C35.6655 7.94318 36.103 8.63636 36.4155 9.47159C36.728 10.3011 36.8842 11.2727 36.8842 12.3864V13.3835H25.8303V11.1335H33.4666C33.4666 10.6108 33.353 10.1477 33.1257 9.74432C32.8984 9.34091 32.5831 9.02557 32.1797 8.7983C31.782 8.56534 31.3189 8.44886 30.7905 8.44886C30.2393 8.44886 29.7507 8.5767 29.3246 8.83239C28.9041 9.08239 28.5746 9.42045 28.3359 9.84659C28.0973 10.267 27.9751 10.7358 27.9695 11.2528V13.392C27.9695 14.0398 28.0888 14.5994 28.3274 15.071C28.5717 15.5426 28.9155 15.9062 29.3587 16.1619C29.8018 16.4176 30.3274 16.5455 30.9354 16.5455C31.3388 16.5455 31.7081 16.4886 32.0433 16.375C32.3786 16.2614 32.6655 16.0909 32.9041 15.8636C33.1428 15.6364 33.3246 15.358 33.4496 15.0284L36.8075 15.25C36.6371 16.0568 36.2876 16.7614 35.7592 17.3636C35.2365 17.9602 34.5604 18.4261 33.7308 18.7614C32.907 19.0909 31.9553 19.2557 30.8757 19.2557ZM39.1854 19V16.8352L45.5945 8.90057V8.80682H39.407V5.90909H49.9666V8.26989L43.9496 16.0085V16.1023H50.1882V19H39.1854ZM57.9226 4.58807V1.54545H72.2578V4.58807H66.9141V19H63.2663V4.58807H57.9226ZM78.1811 11.4318V19H74.5504V1.54545H78.0788V8.21875H78.2322C78.5277 7.44602 79.005 6.84091 79.6641 6.40341C80.3232 5.96023 81.1499 5.73864 82.1442 5.73864C83.0533 5.73864 83.8459 5.9375 84.522 6.33523C85.2038 6.72727 85.7322 7.29261 86.1072 8.03125C86.4879 8.7642 86.6754 9.64205 86.6697 10.6648V19H83.0391V11.3125C83.0447 10.5057 82.8402 9.87784 82.4254 9.42898C82.0163 8.98011 81.4425 8.75568 80.7038 8.75568C80.2095 8.75568 79.772 8.8608 79.3913 9.07102C79.0163 9.28125 78.7209 9.58807 78.505 9.99148C78.2947 10.3892 78.1868 10.8693 78.1811 11.4318ZM95.4929 19.2557C94.1463 19.2557 92.9872 18.983 92.0156 18.4375C91.0497 17.8864 90.3054 17.108 89.7827 16.1023C89.2599 15.0909 88.9986 13.8949 88.9986 12.5142C88.9986 11.1676 89.2599 9.9858 89.7827 8.96875C90.3054 7.9517 91.0412 7.15909 91.9901 6.59091C92.9446 6.02273 94.0639 5.73864 95.348 5.73864C96.2116 5.73864 97.0156 5.87784 97.7599 6.15625C98.5099 6.42898 99.1634 6.84091 99.7202 7.39205C100.283 7.94318 100.72 8.63636 101.033 9.47159C101.345 10.3011 101.501 11.2727 101.501 12.3864V13.3835H90.4474V11.1335H98.0838C98.0838 10.6108 97.9702 10.1477 97.7429 9.74432C97.5156 9.34091 97.2003 9.02557 96.7969 8.7983C96.3991 8.56534 95.9361 8.44886 95.4077 8.44886C94.8565 8.44886 94.3679 8.5767 93.9418 8.83239C93.5213 9.08239 93.1918 9.42045 92.9531 9.84659C92.7145 10.267 92.5923 10.7358 92.5866 11.2528V13.392C92.5866 14.0398 92.706 14.5994 92.9446 15.071C93.1889 15.5426 93.5327 15.9062 93.9759 16.1619C94.419 16.4176 94.9446 16.5455 95.5526 16.5455C95.956 16.5455 96.3253 16.4886 96.6605 16.375C96.9957 16.2614 97.2827 16.0909 97.5213 15.8636C97.7599 15.6364 97.9418 15.358 98.0668 15.0284L101.425 15.25C101.254 16.0568 100.905 16.7614 100.376 17.3636C99.8537 17.9602 99.1776 18.4261 98.348 18.7614C97.5241 19.0909 96.5724 19.2557 95.4929 19.2557ZM112.502 19H108.548L114.573 1.54545H119.329L125.346 19H121.391L117.019 5.53409H116.883L112.502 19ZM112.255 12.1392H121.596V15.0199H112.255V12.1392ZM134.184 5.90909V8.63636H126.104V5.90909H134.184ZM127.954 19V4.96307C127.954 4.0142 128.138 3.22727 128.508 2.60227C128.883 1.97727 129.394 1.50852 130.042 1.19602C130.69 0.883522 131.425 0.727272 132.249 0.727272C132.806 0.727272 133.315 0.769886 133.775 0.855114C134.241 0.940341 134.587 1.01705 134.815 1.08523L134.167 3.8125C134.025 3.76705 133.849 3.72443 133.638 3.68466C133.434 3.64489 133.224 3.625 133.008 3.625C132.474 3.625 132.102 3.75 131.891 4C131.681 4.24432 131.576 4.58807 131.576 5.03125V19H127.954ZM143.442 5.90909V8.63636H135.362V5.90909H143.442ZM137.212 19V4.96307C137.212 4.0142 137.396 3.22727 137.766 2.60227C138.141 1.97727 138.652 1.50852 139.3 1.19602C139.947 0.883522 140.683 0.727272 141.507 0.727272C142.064 0.727272 142.572 0.769886 143.033 0.855114C143.499 0.940341 143.845 1.01705 144.072 1.08523L143.425 3.8125C143.283 3.76705 143.107 3.72443 142.896 3.68466C142.692 3.64489 142.482 3.625 142.266 3.625C141.732 3.625 141.359 3.75 141.149 4C140.939 4.24432 140.834 4.58807 140.834 5.03125V19H137.212ZM145.66 19V5.90909H149.29V19H145.66ZM147.484 4.22159C146.944 4.22159 146.481 4.04261 146.094 3.68466C145.714 3.32102 145.523 2.88636 145.523 2.38068C145.523 1.88068 145.714 1.4517 146.094 1.09375C146.481 0.730113 146.944 0.548295 147.484 0.548295C148.023 0.548295 148.484 0.730113 148.864 1.09375C149.251 1.4517 149.444 1.88068 149.444 2.38068C149.444 2.88636 149.251 3.32102 148.864 3.68466C148.484 4.04261 148.023 4.22159 147.484 4.22159ZM155.83 1.54545V19H152.199V1.54545H155.83ZM158.738 19V5.90909H162.369V19H158.738ZM160.562 4.22159C160.022 4.22159 159.559 4.04261 159.173 3.68466C158.792 3.32102 158.602 2.88636 158.602 2.38068C158.602 1.88068 158.792 1.4517 159.173 1.09375C159.559 0.730113 160.022 0.548295 160.562 0.548295C161.102 0.548295 161.562 0.730113 161.942 1.09375C162.329 1.4517 162.522 1.88068 162.522 2.38068C162.522 2.88636 162.329 3.32102 161.942 3.68466C161.562 4.04261 161.102 4.22159 160.562 4.22159ZM169.01 19.2472C168.175 19.2472 167.43 19.1023 166.777 18.8125C166.124 18.517 165.607 18.0824 165.226 17.5085C164.851 16.929 164.663 16.2074 164.663 15.3438C164.663 14.6165 164.797 14.0057 165.064 13.5114C165.331 13.017 165.695 12.6193 166.155 12.3182C166.615 12.017 167.138 11.7898 167.723 11.6364C168.314 11.483 168.933 11.375 169.581 11.3125C170.342 11.233 170.956 11.1591 171.422 11.0909C171.888 11.017 172.226 10.9091 172.436 10.767C172.646 10.625 172.751 10.4148 172.751 10.1364V10.0852C172.751 9.54545 172.581 9.12784 172.24 8.83239C171.905 8.53693 171.428 8.3892 170.808 8.3892C170.155 8.3892 169.635 8.53409 169.249 8.82386C168.862 9.10795 168.607 9.46591 168.482 9.89773L165.124 9.625C165.294 8.82955 165.629 8.14205 166.129 7.5625C166.629 6.97727 167.274 6.52841 168.064 6.21591C168.859 5.89773 169.78 5.73864 170.825 5.73864C171.553 5.73864 172.249 5.82386 172.913 5.99432C173.584 6.16477 174.178 6.42898 174.695 6.78693C175.217 7.14489 175.629 7.60511 175.93 8.16761C176.232 8.72443 176.382 9.39205 176.382 10.1705V19H172.939V17.1847H172.837C172.626 17.5938 172.345 17.9545 171.993 18.267C171.641 18.5739 171.217 18.8153 170.723 18.9915C170.229 19.1619 169.658 19.2472 169.01 19.2472ZM170.05 16.7415C170.584 16.7415 171.055 16.6364 171.464 16.4261C171.874 16.2102 172.195 15.9205 172.428 15.5568C172.661 15.1932 172.777 14.7812 172.777 14.321V12.9318C172.663 13.0057 172.507 13.0739 172.308 13.1364C172.115 13.1932 171.896 13.2472 171.652 13.2983C171.408 13.3437 171.163 13.3864 170.919 13.4261C170.675 13.4602 170.453 13.4915 170.254 13.5199C169.828 13.5824 169.456 13.6818 169.138 13.8182C168.82 13.9545 168.572 14.1392 168.396 14.3722C168.22 14.5994 168.132 14.8835 168.132 15.2244C168.132 15.7188 168.311 16.0966 168.669 16.358C169.033 16.6136 169.493 16.7415 170.05 16.7415ZM186.162 5.90909V8.63636H178.278V5.90909H186.162ZM180.068 2.77273H183.699V14.9773C183.699 15.3125 183.75 15.5739 183.852 15.7614C183.955 15.9432 184.097 16.071 184.278 16.1449C184.466 16.2187 184.682 16.2557 184.926 16.2557C185.097 16.2557 185.267 16.2415 185.438 16.2131C185.608 16.179 185.739 16.1534 185.83 16.1364L186.401 18.8381C186.219 18.8949 185.963 18.9602 185.634 19.0341C185.304 19.1136 184.903 19.1619 184.432 19.179C183.557 19.2131 182.79 19.0966 182.131 18.8295C181.477 18.5625 180.969 18.1477 180.605 17.5852C180.241 17.0227 180.063 16.3125 180.068 15.4545V2.77273ZM194.352 19.2557C193.006 19.2557 191.847 18.983 190.875 18.4375C189.909 17.8864 189.165 17.108 188.642 16.1023C188.119 15.0909 187.858 13.8949 187.858 12.5142C187.858 11.1676 188.119 9.9858 188.642 8.96875C189.165 7.9517 189.901 7.15909 190.849 6.59091C191.804 6.02273 192.923 5.73864 194.207 5.73864C195.071 5.73864 195.875 5.87784 196.619 6.15625C197.369 6.42898 198.023 6.84091 198.58 7.39205C199.142 7.94318 199.58 8.63636 199.892 9.47159C200.205 10.3011 200.361 11.2727 200.361 12.3864V13.3835H189.307V11.1335H196.943C196.943 10.6108 196.83 10.1477 196.602 9.74432C196.375 9.34091 196.06 9.02557 195.656 8.7983C195.259 8.56534 194.795 8.44886 194.267 8.44886C193.716 8.44886 193.227 8.5767 192.801 8.83239C192.381 9.08239 192.051 9.42045 191.812 9.84659C191.574 10.267 191.452 10.7358 191.446 11.2528V13.392C191.446 14.0398 191.565 14.5994 191.804 15.071C192.048 15.5426 192.392 15.9062 192.835 16.1619C193.278 16.4176 193.804 16.5455 194.412 16.5455C194.815 16.5455 195.185 16.4886 195.52 16.375C195.855 16.2614 196.142 16.0909 196.381 15.8636C196.619 15.6364 196.801 15.358 196.926 15.0284L200.284 15.25C200.114 16.0568 199.764 16.7614 199.236 17.3636C198.713 17.9602 198.037 18.4261 197.207 18.7614C196.384 19.0909 195.432 19.2557 194.352 19.2557Z" fill="white"/>
</svg>
